<svg width="1024" height="1024" xmlns="http://www.w3.org/2000/svg" class="icon">
 <defs>
  <style type="text/css"/>
 </defs>
 <g>
  <title>background</title>
  <rect x="-1" y="-1" width="1282.00683" height="1282.00683" id="canvas_background" fill="none"/>
 </g>
 <g>
  <title>Layer 1</title>
  <path d="m210.1503,511.08931c0,-201.23822 168.5355,-366.47622 383.84103,-384.83936c-13.12949,-1.11933 -26.4405,-1.75463 -39.90277,-1.75463c-234.0317,0 -423.71355,173.07334 -423.71355,386.59399s189.59109,386.59399 423.71355,386.59399c13.46227,0 26.74303,-0.63529 39.90277,-1.75463c-215.30554,-18.36314 -383.84104,-183.51038 -383.84103,-384.83936z" fill="#FADF64" class="selected" id="svg_1"/>
  <path d="m842.7559,290.70139a20.66231,20.66231 0 0 0 -14.55135,-5.44541a17.21355,17.21355 0 0 0 -18.15137,18.15137a25.92621,25.92621 0 0 0 3.63027,10.92108a352.10639,352.10639 0 0 1 61.92643,200.33065c0,200.3004 -163.9069,364.2073 -364.2073,364.2073s-364.29805,-163.84639 -364.29805,-364.17705s163.78589,-364.2073 364.2073,-364.2073a363.17872,363.17872 0 0 1 245.83009,96.5048a16.548,16.548 0 0 0 12.73622,5.47567a17.21355,17.21355 0 0 0 18.15137,-18.15137a22.5077,22.5077 0 0 0 -7.2908,-14.58161a398.24112,398.24112 0 1 0 61.92643,71.03238l0.09076,-0.06051zm-0.09076,0.06051" id="svg_2"/>
  <path d="m742.59057,379.94564a17.60683,17.60683 0 0 0 -25.50268,0l-269.51764,269.51764l-142.18575,-142.18576a18.15137,18.15137 0 1 0 -25.50268,25.50268l152.98582,152.95557l0,1.81514a19.66399,19.66399 0 0 0 12.73622,5.47566a16.51775,16.51775 0 0 0 12.73621,-5.47566l0,-1.81514l284.09924,-280.43871a17.60683,17.60683 0 0 0 0,-25.50268l0.15126,0.15126zm-0.15126,-0.15126" id="svg_3"/>
 </g>
</svg>